<?xml version="1.0" encoding="utf-8"?>
<!-- Generator: Adobe Illustrator 16.0.0, SVG Export Plug-In . SVG Version: 6.00 Build 0)  -->
<!DOCTYPE svg PUBLIC "-//W3C//DTD SVG 1.1//EN" "http://www.w3.org/Graphics/SVG/1.1/DTD/svg11.dtd">
<svg version="1.1" xmlns="http://www.w3.org/2000/svg" xmlns:xlink="http://www.w3.org/1999/xlink" x="0px" y="0px"
	 width="589.081px" height="595.28px" viewBox="0 0 589.081 595.28" enable-background="new 0 0 589.081 595.28"
	 xml:space="preserve">
<g id="Ebene_7">
	<path fill="#363636" stroke="#363636" stroke-width="11" stroke-miterlimit="10" d="M400.457,234.542
		c5.82,15.939,67.86,146.771,50.995,152.638l-124.913-33.023l-181.419,34.262c-16.866,5.868-35.259-2.299-41.077-18.238
		l-22.832-62.539c-5.821-15.941,3.133-33.626,19.998-39.495l167.282-79.672l70.512-110.901
		C355.865,71.705,394.635,218.602,400.457,234.542L400.457,234.542z"/>
	
		<ellipse fill="#363636" stroke="#363636" stroke-width="11" stroke-miterlimit="10" cx="385.261" cy="242.789" rx="33.771" ry="32.972"/>
	<path fill="#363636" stroke="#363636" stroke-width="11" stroke-miterlimit="10" d="M184.862,357.053
		c-3.587-11.458-9.329-33.724-18.374-31.024l0,0c-9.044,2.698,0.192,23.548,3.779,35.011l27.823,123.184
		c3.586,11.458,4.779,21.268,13.825,18.566l18.088-5.398c9.042-2.699,4.423-11.478,0.836-22.936L184.862,357.053z"/>
</g>
<g id="Ebene_10">
</g>
</svg>
