<?xml version="1.0" encoding="utf-8"?>
<!-- Generator: Adobe Illustrator 16.0.0, SVG Export Plug-In . SVG Version: 6.00 Build 0)  -->
<!DOCTYPE svg PUBLIC "-//W3C//DTD SVG 1.1//EN" "http://www.w3.org/Graphics/SVG/1.1/DTD/svg11.dtd">
<svg version="1.1" xmlns="http://www.w3.org/2000/svg" xmlns:xlink="http://www.w3.org/1999/xlink" x="0px" y="0px"
	 width="589.081px" height="595.28px" viewBox="0 0 589.081 595.28" enable-background="new 0 0 589.081 595.28"
	 xml:space="preserve">
<g id="Ebene_5">
	<path fill="#363636" d="M404.237,441.052c0,5.788-4.691,10.479-10.479,10.479H190.469c-5.788,0-10.479-4.691-10.479-10.479l0,0
		c0-5.788,4.691-10.479,10.479-10.479h203.289C399.546,430.573,404.237,435.264,404.237,441.052L404.237,441.052z"/>
	<path fill="#363636" d="M511.121,350.935c0,13.888-11.261,25.148-25.149,25.148H98.255c-13.888,0-25.149-11.261-25.149-25.148
		V95.251c0-13.889,11.261-25.149,25.149-25.149h387.716c13.889,0,25.149,11.26,25.149,25.149V350.935z"/>
	<rect x="95.112" y="97.347" fill="#FFFFFF" width="394.003" height="194.906"/>
	<polygon fill="#363636" points="371.752,430.573 212.475,430.573 234.48,359.317 345.556,359.317 	"/>
</g>
<g id="Ebene_10">
</g>
</svg>
