<?xml version="1.0" encoding="utf-8"?>
<!-- Generator: Adobe Illustrator 16.0.0, SVG Export Plug-In . SVG Version: 6.00 Build 0)  -->
<!DOCTYPE svg PUBLIC "-//W3C//DTD SVG 1.1//EN" "http://www.w3.org/Graphics/SVG/1.1/DTD/svg11.dtd">
<svg version="1.1" xmlns="http://www.w3.org/2000/svg" xmlns:xlink="http://www.w3.org/1999/xlink" x="0px" y="0px"
	 width="589.081px" height="595.28px" viewBox="0 0 589.081 595.28" enable-background="new 0 0 589.081 595.28"
	 xml:space="preserve">
<g id="Ebene_8">
	<path fill="none" stroke="#363636" stroke-width="12" stroke-miterlimit="10" d="M411.309,475.864
		c0,16.157-13.038,29.251-29.117,29.251H109.224c-16.082,0-29.117-13.094-29.117-29.251V106.742
		c0-16.157,13.036-29.252,29.117-29.252h199.211c16.079,0,102.874,84.78,102.874,100.938V475.864z"/>
	<path fill="#363636" stroke="#363636" stroke-miterlimit="10" d="M363.636,312.037c0,6.581-5.337,11.918-11.918,11.918H130.916
		c-6.582,0-11.918-5.337-11.918-11.918l0,0c0-6.581,5.336-11.918,11.918-11.918h220.802
		C358.299,300.119,363.636,305.456,363.636,312.037L363.636,312.037z"/>
	<path fill="#363636" stroke="#363636" stroke-miterlimit="10" d="M363.636,363.136c0,6.581-5.337,11.918-11.918,11.918H130.916
		c-6.581,0-11.918-5.337-11.918-11.918l0,0c0-6.581,5.337-11.918,11.918-11.918h220.802
		C358.299,351.218,363.636,356.555,363.636,363.136L363.636,363.136z"/>
	<path fill="#363636" stroke="#363636" stroke-miterlimit="10" d="M363.636,414.91c0,6.582-5.337,11.918-11.918,11.918H130.916
		c-6.581,0-11.918-5.336-11.918-11.918l0,0c0-6.582,5.337-11.918,11.918-11.918h220.802
		C358.299,402.992,363.636,408.328,363.636,414.91L363.636,414.91z"/>
	<path fill="#363636" stroke="#363636" stroke-miterlimit="10" d="M363.636,260.601c0,6.581-3.012,11.918-6.724,11.918H232.357
		c-3.711,0-6.722-5.337-6.722-11.918l0,0c0-6.582,3.011-11.918,6.722-11.918h124.555
		C360.624,248.682,363.636,254.019,363.636,260.601L363.636,260.601z"/>
	<text transform="matrix(1.109 0 0 1 118.9966 255.958)" fill="#363636" font-family="'MyriadPro-Semibold'" font-size="132.1042">$</text>
	<path fill="#363636" d="M406,167c7.5,11,6.009,17.5,5.309,25.855l-85.937-0.627c-16.937,0.627-30.737-6.273-30.737-27.601
		l-2.509-87.138C312,70.102,317.784,81.355,320.5,84l38.5,33c15.055,16.687,28.7,32.113,40,43.5L406,167z"/>
</g>
<g id="Ebene_10">
</g>
</svg>
